<?xml version="1.0" encoding="iso-8859-1"?>
<!-- Uploaded to: SVG Repo, www.svgrepo.com, Generator: SVG Repo Mixer Tools -->
<svg fill="#000000" height="800px" width="800px" version="1.1" id="Layer_1" xmlns="http://www.w3.org/2000/svg" xmlns:xlink="http://www.w3.org/1999/xlink" 
	 viewBox="0 0 511.991 511.991" xml:space="preserve">
<g>
	<g>
		<path d="M343.559,286.107l-76.287,5.394l22.387-142.03c2.473-15.695-8.244-30.422-23.939-32.896l-64.548-10.174
			c-15.695-2.474-30.422,8.244-32.897,23.939c0,0-23.334,146.363-29.686,188.342c-1.272,8.407,1.058,24.954,11.835,31.887
			c3.872-23.591,31.548-192.187,32.444-197.642c-16.817,217.997-15.914,204.048-15.637,207.273
			c-6.855,6.42-11.152,15.543-11.152,25.654c0,14.941,0,19.076,0,25.993c-5.905,7.564-9.433,17.073-9.433,27.412
			c0,24.63,19.966,44.596,44.595,44.596c24.63,0,44.595-19.966,44.595-44.596c0-10.339-3.529-19.849-9.433-27.411
			c0-6.81,0-12.101,0-25.994c0-9.808-4.04-18.686-10.538-25.069c0.196-1.76-1.096,14.711,14.503-187.484
			c0.021,8.354,0.429,170.227,0.447,177.186l62.283-4.403l-45.567,74.642c1.927,5.835,2.984,12.062,2.984,18.534
			c0,24.054-14.411,44.792-35.045,54.075c2.089,5.847,6.112,11.046,11.824,14.533c13.267,8.101,30.58,3.901,38.671-9.353
			l103.588-169.683C381.439,309.36,366.342,284.494,343.559,286.107z M210.03,398.811c-5.71-2.657-12.072-4.149-18.785-4.149
			c-6.713,0-13.075,1.493-18.785,4.149v-12.96c0-3.136,0.867-6.614,2.706-9.661c4.409,4.003,10.202,6.357,16.441,6.357
			c5.711,0,11.358-2.001,15.953-5.972c1.689,2.96,2.471,6.334,2.471,9.276V398.811z"/>
	</g>
</g>
<g>
	<g>
		<circle cx="261.464" cy="48.078" r="48.078"/>
	</g>
</g>
</svg>